<?xml version="1.0"?><svg fill="#000000" xmlns="http://www.w3.org/2000/svg" viewBox="0 0 24 24" width="24px" height="24px">    <path d="M 11 2 L 11 4 L 9.5449219 4 C 8.8569219 4 8.5110469 4.8313594 8.9980469 5.3183594 L 11.453125 7.7734375 C 11.754125 8.0744375 12.245875 8.0744375 12.546875 7.7734375 L 15.001953 5.3183594 C 15.488953 4.8313594 15.143078 4 14.455078 4 L 13 4 L 13 2 L 11 2 z M 4 4 C 2.895 4 2 4.895 2 6 L 2 18 C 2 19.105 2.895 20 4 20 L 20 20 C 21.105 20 22 19.105 22 18 L 22 6 C 22 4.895 21.105 4 20 4 L 18 4 C 17.735 4 17.479969 4.1049688 17.292969 4.2929688 C 16.662969 4.9229687 17.109 6 18 6 L 20 6 L 20 8.0019531 L 12.521484 12.673828 C 12.202484 12.872828 11.798516 12.872828 11.478516 12.673828 L 4 8.0019531 L 4 6 L 6 6 C 6.891 6 7.3370312 4.9229687 6.7070312 4.2929688 C 6.5200312 4.1049688 6.265 4 6 4 L 4 4 z"/></svg>